<svg width="1000" height="1000" viewBox="0 0 1000 1000" xmlns="http://www.w3.org/2000/svg">
<path d="M493.945 71.0279C612.057 69.7845 713.385 110.195 797.928 192.259C882.471 274.323 925.986 374.417 928.472 492.54C929.716 610.663 888.998 712.31 806.32 797.483C723.642 882.656 623.247 926.486 505.135 928.972C387.023 930.216 285.385 889.494 200.22 806.809C115.055 724.123 71.8514 623.718 70.6081 505.595C68.1215 387.473 108.528 285.825 191.828 200.652C275.128 115.479 375.834 72.2713 493.945 71.0279ZM542.433 212.775C516.325 212.775 496.121 220.236 481.823 235.156C467.526 250.077 460.377 265.62 460.377 281.784C459.134 299.191 463.796 312.869 474.364 322.816C484.932 332.763 500.162 337.737 520.054 337.737C543.677 337.737 562.637 330.898 576.935 317.221C591.232 303.543 598.381 286.757 598.381 266.863C598.381 230.804 579.732 212.775 542.433 212.775ZM430.538 766.709C449.187 766.709 475.296 758.627 508.865 742.463C542.433 726.299 575.38 702.052 607.706 669.724L590.921 647.343C561.083 669.724 538.704 680.914 523.784 680.914C515.081 680.914 513.838 669.102 520.054 645.478L559.218 496.27C575.38 436.587 568.542 406.745 538.704 406.745C520.054 406.745 492.391 415.76 455.715 433.789C419.038 451.818 383.293 475.132 348.482 503.73L363.401 527.977C395.726 506.839 418.727 496.27 432.403 496.27C439.863 496.27 439.863 506.839 432.403 527.977L398.834 669.724C382.672 734.381 393.24 766.709 430.538 766.709Z"/>
</svg>
