<svg width="1000" height="1000" viewBox="0 0 1000 1000" xmlns="http://www.w3.org/2000/svg">
<path d="M949.372 388V291.7C949.372 287.5 947.872 283.9 944.873 280.9C941.874 277.9 937.975 276.1 933.176 275.5H242.174V179.2C242.174 175 240.674 171.4 237.675 168.4C234.676 165.4 230.777 163.6 225.978 163C222.379 163 218.48 164.8 214.281 168.4L54.1272 328.6C51.1281 332.2 49.6285 336.1 49.6285 340.3C49.6285 345.1 51.1281 349 54.1272 352L215.181 512.2C218.18 515.2 221.779 516.7 225.978 516.7C230.777 516.7 234.676 515.2 237.675 512.2C240.674 509.2 242.174 505.3 242.174 500.5V404.2H933.176C937.375 404.2 941.274 402.7 944.873 399.7C948.472 396.7 949.971 392.8 949.372 388ZM949.372 661.6C949.372 656.8 947.872 652.9 944.873 649.9L783.819 489.7C780.82 486.1 777.221 484.3 773.022 484.3C768.223 484.3 764.324 486.1 761.325 489.7C758.326 493.3 756.827 496.9 756.827 500.5V596.8H65.8239C61.6251 596.8 57.7262 598.6 54.1272 602.2C50.5283 605.8 49.0287 609.4 49.6285 613V709.3C49.6285 714.1 51.1281 718 54.1272 721C57.1264 724 61.0253 725.5 65.8239 725.5H756.827V821.8C756.827 826.6 758.326 830.5 761.325 833.5C764.324 836.5 768.223 838 773.022 838C776.621 838 780.52 836.5 784.719 833.5L944.873 673.3C947.872 670.3 949.372 666.4 949.372 661.6Z"/>
</svg>
