<svg width="1000" height="1000" viewBox="0 0 1000 1000" xmlns="http://www.w3.org/2000/svg">
<path d="M319 699.189L359.85 624.087C329.45 601.904 305.383 574.018 287.65 540.428C269.917 506.838 261.367 470.712 262 432.052C262 389.589 272.767 349.978 294.3 313.219C213.233 354.414 145.783 416.841 91.95 500.5C151.483 591.764 227.167 657.994 319 699.189ZM525.15 296.107C525.15 289.135 522.617 283.114 517.55 278.044C512.483 272.974 506.467 270.756 499.5 271.389C455.167 271.389 417.167 287.234 385.5 318.923C353.833 350.612 338 388.321 338 432.052C338 439.024 340.533 445.044 345.6 450.115C350.667 455.185 356.683 457.72 363.65 457.72C370.617 457.72 376.633 455.185 381.7 450.115C386.767 445.044 389.3 439.024 389.3 432.052C389.3 401.631 400.067 375.646 421.6 354.097C443.133 332.549 469.1 321.775 499.5 321.775C506.467 321.775 512.483 319.24 517.55 314.169C522.617 309.099 525.15 303.078 525.15 296.107ZM717.05 195.336C717.05 197.871 717.05 199.456 717.05 200.089C679.683 266.636 623.95 366.773 549.85 500.5C475.75 634.227 420.017 734.364 382.65 800.911L356.05 848.444C352.883 854.148 348.133 857 341.8 857C337.367 857 313.617 844.641 270.55 819.924C264.85 816.121 262 811.051 262 804.713C262 800.277 269.917 784.749 285.75 758.131C235.083 735.315 188.533 704.893 146.1 666.867C103.667 628.84 66.6167 585.426 34.95 536.625C27.9833 525.851 24.5 513.809 24.5 500.5C24.5 487.191 27.9833 474.832 34.95 463.424C89.4167 380.399 156.55 314.803 236.35 266.636C316.15 218.469 403.867 194.385 499.5 194.385C531.167 194.385 562.833 197.554 594.5 203.892L623.95 152.556C627.117 146.852 631.867 144 638.2 144C640.1 144 643.267 144.951 647.7 146.852C652.133 148.753 657.833 151.605 664.8 155.408C671.767 159.211 677.467 162.38 681.9 164.915C686.333 167.45 692.033 170.619 699 174.421C705.967 178.224 709.133 180.442 708.5 181.076C714.2 184.245 717.05 188.998 717.05 195.336ZM737 432.052C737 481.487 723.067 526.485 695.2 567.047C667.333 607.608 630.283 636.445 584.05 653.557L733.2 387.371C735.733 403.215 737 418.109 737 432.052ZM974.5 500.5C974.5 512.542 971.017 524.584 964.05 536.625C950.117 559.441 930.8 585.109 906.1 613.629C852.9 674.472 791.467 721.688 721.8 755.279C652.133 788.869 578.033 805.664 499.5 805.664L538.45 735.315C613.817 728.977 683.167 704.893 746.5 663.064C809.833 621.235 863.35 567.047 907.05 500.5C865.883 437.122 815.85 385.152 756.95 344.591L790.2 284.699C823.767 307.515 856.067 334.45 887.1 365.505C918.133 396.56 943.783 429.2 964.05 463.424C971.017 475.466 974.5 487.824 974.5 500.5Z"/>
</svg>
