<svg width="1000" height="1000" viewBox="0 0 1000 1000" xmlns="http://www.w3.org/2000/svg">
<path d="M907.05 500.981C853.217 417.362 785.767 354.965 704.7 313.789C726.233 350.53 737 390.123 737 432.566C737 497.814 713.883 553.876 667.65 600.754C621.417 647.631 565.367 670.753 499.5 670.119C433.633 669.486 377.583 646.364 331.35 600.754C285.117 555.143 262 499.081 262 432.566C262 390.123 272.767 350.53 294.3 313.789C213.233 354.965 145.783 417.362 91.95 500.981C139.45 573.197 198.667 630.844 269.6 673.92C340.533 716.997 417.167 738.535 499.5 738.535C581.833 738.535 658.783 716.997 730.35 673.92C801.917 630.844 860.817 573.197 907.05 500.981ZM525.15 296.685C525.15 289.717 522.617 283.699 517.55 278.631C512.483 273.563 506.467 271.346 499.5 271.979C455.167 271.979 417.167 287.816 385.5 319.49C353.833 351.164 338 388.856 338 432.566C338 439.534 340.533 445.552 345.6 450.62C350.667 455.687 356.683 458.221 363.65 458.221C370.617 458.221 376.633 455.687 381.7 450.62C386.767 445.552 389.3 439.534 389.3 432.566C389.3 402.159 400.067 376.186 421.6 354.648C443.133 333.11 469.1 322.341 499.5 322.341C506.467 322.341 512.483 319.807 517.55 314.739C522.617 309.671 525.15 303.653 525.15 296.685ZM974.5 500.981C974.5 513.017 971.017 525.053 964.05 537.089C914.65 618.808 848.15 684.056 764.55 732.833C680.95 781.611 592.6 806 499.5 806C406.4 806 318.05 781.611 234.45 732.833C150.85 684.056 84.35 618.808 34.95 537.089C27.9833 525.053 24.5 513.017 24.5 500.981C24.5 488.945 27.9833 476.592 34.95 463.923C84.35 382.838 150.85 317.906 234.45 269.129C318.05 220.351 406.4 195.645 499.5 195.012C592.6 194.378 680.95 219.084 764.55 269.129C848.15 319.173 914.65 384.105 964.05 463.923C971.017 476.592 974.5 488.945 974.5 500.981Z"/>
</svg>
