<svg width="1000" height="1000" viewBox="0 0 1000 1000" xmlns="http://www.w3.org/2000/svg">
<path d="M911.44 287.58C923.48 299.62 929.5 313.953 929.5 330.58C929.5 347.207 923.48 361.827 911.44 374.44L719.66 566.22L791.04 638.46L714.5 715C662.327 767.173 600.12 796.987 527.88 804.44C455.64 811.893 389.707 795.84 330.08 756.28L156.36 930H69.5V843.14L243.22 669.42C203.66 610.367 187.607 544.433 195.06 471.62C202.513 398.807 232.327 336.6 284.5 285L361.04 208.46L433.28 279.84L625.06 88.06C637.1 76.02 651.72 70 668.92 70C686.12 70 700.453 76.02 711.92 88.06C723.387 100.1 729.407 114.433 729.98 131.06C730.553 147.687 724.533 162.307 711.92 174.92L520.14 366.7L632.8 479.36L824.58 287.58C837.193 275.54 851.813 269.52 868.44 269.52C885.067 269.52 899.4 275.54 911.44 287.58Z"/>
</svg>
