<svg width="900" height="900" viewBox="0 0 900 900" xmlns="http://www.w3.org/2000/svg">
<path d="M786.41 607.751C792.424 618.276 794.68 630.306 794.68 641.583C794.68 681.43 763.855 710 727.015 710H174.417C138.329 710 106 679.927 106 641.583C106 630.306 109.007 618.276 115.774 607.751L392.449 128.833C403.726 107.781 425.529 95 451.092 95C475.15 95 496.954 107.781 508.983 128.833L786.41 607.751ZM401.471 252.885V477.683H501.465V252.885H401.471ZM451.844 530.312C420.267 530.312 395.456 554.37 395.456 587.451C395.456 618.276 420.267 643.087 451.844 643.087C483.421 643.087 508.231 618.276 508.231 587.451C508.231 555.122 484.172 530.312 451.844 530.312Z"/>
</svg>
